<?xml version="1.0" encoding="UTF-8"?><!DOCTYPE svg PUBLIC "-//W3C//DTD SVG 1.1//EN" "http://www.w3.org/Graphics/SVG/1.1/DTD/svg11.dtd"><svg xmlns="http://www.w3.org/2000/svg"><symbol id="icon-airplane" viewBox="0 0 134.013 141.497"><g fill="#434343"><path d="M71.945 67.57l-4.316 4.3 5.928 9.229c.216.191.489.299.777.303.312.004.604-.113.809-.314.63-.938-1.034-7.281-3.198-13.518z"/><path d="M63.479 79.152l-.529-3.838 4.397-4.565 4.316-4.3 6.145-6.119c.763-.758.952-1.805.063-2.697-.891-.892-2.025-.799-2.788-.041l-6.225 6.201c-3.719-1.184-10.445-3.471-12.984-3.47-.354-.001-.509.039-.563.056a1.162 1.162 0 0 0-.02 1.544l9.317 6.103-4.625 4.606s-3.568-.736-4.09-.805c-.728-.097-1.568.543-.004 1.34 1.825.931 3.964 2.011 3.964 2.011s1.317 2.56 2.121 3.973c1.025 1.708 1.627.879 1.505.001z"/></g></symbol><symbol id="icon-alarm-clock" viewBox="0 0 134.013 141.497"><g fill="#434343"><path d="M80.373 59.043c-1.956-1.418-4.547-1.14-5.949.569a14.992 14.992 0 0 1 4.068 2.099 15.24 15.24 0 0 1 3.269 3.238c1.14-1.9.565-4.482-1.388-5.906zm-16.102 2.635a15.072 15.072 0 0 1 4.07-2.078c-1.403-1.692-3.994-1.97-5.949-.563-1.954 1.41-2.529 3.969-1.389 5.852a15.143 15.143 0 0 1 3.268-3.211zm12.928 9.5h-3.908c-.128-.587-.427-.961-1.02-1.044v-4.962h-.851v4.935c-.646.146-1.05.589-1.05 1.575 0 .892.628 1.427 1.405 1.427.021 0 1.371.004 1.515-1.057h3.908l.001-.874z"/><path d="M81.272 71.11c0-.298-.019-.592-.045-.884-.418-4.735-4.15-8.519-8.869-9.001h-.001c-.208-.021-.421-.023-.633-.033-.128-.005-.253-.02-.382-.02h-.006a9.936 9.936 0 0 0-9.938 9.938c0 .046.006.089.008.133a9.87 9.87 0 0 0 3.122 7.083 1.926 1.926 0 0 0-1.066 1.723c0 1.07.867 1.938 1.938 1.938a1.932 1.932 0 0 0 1.925-1.802 9.856 9.856 0 0 0 3.434.835c.193.012.385.029.58.029.224 0 .44-.02.661-.033a9.902 9.902 0 0 0 3.473-.883 1.934 1.934 0 0 0 3.867-.084c0-.788-.471-1.462-1.146-1.765a9.894 9.894 0 0 0 3.078-7.174zm-9.843 7.062c-3.943 0-7.151-3.191-7.151-7.113s3.208-7.113 7.151-7.113c3.942 0 7.151 3.191 7.151 7.113s-3.209 7.113-7.151 7.113z"/></g></symbol><symbol id="icon-facebook" viewBox="0 0 512 512"><path d="M204.067 184.692h-43.144v70.426h43.144V462h82.965V254.238h57.882l6.162-69.546h-64.044v-39.615c0-16.398 3.302-22.89 19.147-22.89h44.896V50h-57.441c-61.734 0-89.567 27.179-89.567 79.231v55.461z"/></symbol><symbol id="icon-twitter" viewBox="0 0 512 512"><path d="M462 128.223c-15.158 6.724-31.449 11.269-48.547 13.31 17.449-10.461 30.854-27.025 37.164-46.764a169.218 169.218 0 0 1-53.676 20.511c-15.418-16.428-37.386-26.691-61.698-26.691-54.56 0-94.668 50.916-82.337 103.787-70.25-3.524-132.534-37.177-174.223-88.314-22.142 37.983-11.485 87.691 26.158 112.85a84.148 84.148 0 0 1-38.285-10.574c-.917 39.162 27.146 75.781 67.795 83.949a84.688 84.688 0 0 1-38.17 1.447c10.754 33.58 41.972 58.018 78.96 58.699C139.604 378.282 94.846 390.721 50 385.436c37.406 23.982 81.837 37.977 129.571 37.977 156.932 0 245.595-132.551 240.251-251.435 16.517-11.917 30.846-26.804 42.178-43.755z"/></symbol><symbol id="icon-vimeo" viewBox="0 0 512 512"><path d="M460.802 160.227c-1.844 40.119-29.852 95.053-84.027 164.78-56.02 72.83-103.412 109.249-142.18 109.249-24.006 0-44.337-22.17-60.935-66.535-11.087-40.662-22.17-81.323-33.253-121.982-12.327-44.341-25.548-66.536-39.69-66.536-3.08 0-13.869 6.49-32.332 19.413L49 173.635c20.331-17.871 40.392-35.742 60.127-53.637 27.115-23.439 47.474-35.767 61.045-37.015 32.062-3.08 51.801 18.846 59.209 65.781 8 50.635 13.543 82.13 16.651 94.458 9.243 42.014 19.409 62.997 30.52 62.997 8.623 0 21.575-13.629 38.851-40.878 17.246-27.255 26.498-47.989 27.738-62.238 2.464-23.521-6.788-35.31-27.738-35.31-9.868 0-20.033 2.272-30.496 6.759 20.249-66.344 58.936-98.569 116.036-96.734 42.334 1.249 62.289 28.714 59.859 82.409z"/></symbol></svg>