<?xml version="1.0" encoding="UTF-8"?><!DOCTYPE svg PUBLIC "-//W3C//DTD SVG 1.1//EN" "http://www.w3.org/Graphics/SVG/1.1/DTD/svg11.dtd"><svg xmlns="http://www.w3.org/2000/svg"><symbol id="icon-airplane" viewBox="0 0 134.013 141.497"><g fill="#434343"><path d="M71.945 67.57l-4.316 4.3 5.927 9.23c.216.19.49.298.777.302.312.004.604-.113.81-.314.63-.938-1.035-7.28-3.2-13.518z"/><path d="M63.48 79.152c-.12-.877-.53-3.838-.53-3.838l4.397-4.565 4.316-4.3 6.145-6.12c.763-.758.952-1.805.063-2.697-.89-.892-2.024-.8-2.787-.04l-6.225 6.2c-3.72-1.184-10.445-3.47-12.984-3.47-.354 0-.51.04-.563.056-.396.434-.405 1.1-.02 1.543l9.318 6.103-4.625 4.606s-3.568-.736-4.09-.805c-.728-.097-1.568.543-.004 1.34 1.824.93 3.963 2.01 3.963 2.01s1.317 2.56 2.12 3.974c1.026 1.71 1.628.88 1.506.002z"/></g></symbol><symbol id="icon-alarm-clock" viewBox="0 0 134.013 141.497"><g fill="#434343"><path d="M80.373 59.043c-1.956-1.418-4.547-1.14-5.95.57 1.42.473 2.792 1.17 4.07 2.098 1.275.93 2.367 2.025 3.268 3.24 1.14-1.9.566-4.483-1.387-5.907zM64.27 61.678c1.28-.92 2.652-1.61 4.07-2.078-1.402-1.692-3.993-1.97-5.948-.563-1.954 1.41-2.53 3.97-1.39 5.852.9-1.205 1.994-2.29 3.27-3.212zM77.2 71.178h-3.91c-.127-.587-.426-.96-1.02-1.044v-4.962h-.85v4.935c-.646.146-1.05.59-1.05 1.575 0 .892.628 1.427 1.405 1.427.02 0 1.37.003 1.515-1.058h3.908v-.874z"/><path d="M81.272 71.11c0-.298-.02-.592-.045-.884-.418-4.735-4.15-8.52-8.87-9-.208-.022-.42-.024-.633-.034-.128-.005-.253-.02-.382-.02h-.006c-5.49 0-9.938 4.448-9.938 9.938 0 .046.006.09.008.133.035 2.796 1.232 5.303 3.122 7.083-.63.318-1.066.966-1.066 1.723 0 1.07.867 1.937 1.938 1.937 1.024 0 1.854-.796 1.925-1.802 1.06.47 2.216.766 3.434.835.192.012.384.03.58.03.223 0 .44-.02.66-.034 1.232-.08 2.4-.393 3.473-.883.045 1.03.888 1.854 1.93 1.854 1.07 0 1.937-.866 1.937-1.938 0-.79-.47-1.463-1.146-1.766 1.89-1.808 3.078-4.348 3.078-7.174zm-9.843 7.062c-3.944 0-7.152-3.19-7.152-7.113s3.208-7.114 7.15-7.114c3.943 0 7.152 3.19 7.152 7.113s-3.21 7.112-7.15 7.112z"/></g></symbol><symbol id="icon-facebook" viewBox="0 0 512 512"><path d="M204.067 184.692h-43.144v70.426h43.144V462h82.965V254.238h57.882l6.162-69.546h-64.044v-39.615c0-16.398 3.302-22.89 19.147-22.89h44.895V50h-57.44c-61.735 0-89.568 27.18-89.568 79.23v55.462z"/></symbol><symbol id="icon-twitter" viewBox="0 0 512 512"><path d="M462 128.223c-15.158 6.724-31.45 11.27-48.547 13.31 17.45-10.46 30.854-27.025 37.164-46.764-16.333 9.686-34.422 16.72-53.676 20.51-15.417-16.428-37.385-26.69-61.697-26.69-54.56 0-94.668 50.915-82.337 103.786-70.25-3.524-132.534-37.177-174.223-88.314-22.142 37.983-11.485 87.69 26.158 112.85-13.853-.438-26.89-4.24-38.284-10.574-.917 39.162 27.146 75.78 67.795 83.95-11.895 3.236-24.925 3.977-38.17 1.446 10.755 33.58 41.973 58.018 78.96 58.7C139.605 378.28 94.847 390.72 50 385.435c37.406 23.982 81.837 37.977 129.57 37.977 156.933 0 245.596-132.55 240.252-251.435 16.517-11.917 30.846-26.804 42.178-43.755z"/></symbol><symbol id="icon-vimeo" viewBox="0 0 512 512"><path d="M460.802 160.227c-1.844 40.12-29.852 95.053-84.027 164.78-56.02 72.83-103.412 109.25-142.18 109.25-24.006 0-44.337-22.17-60.935-66.536-11.087-40.66-22.17-81.322-33.253-121.98-12.327-44.342-25.548-66.537-39.69-66.537-3.08 0-13.87 6.49-32.332 19.413L49 173.636c20.33-17.872 40.392-35.743 60.127-53.638 27.115-23.44 47.474-35.767 61.045-37.015 32.062-3.08 51.8 18.846 59.21 65.78 8 50.636 13.542 82.13 16.65 94.46 9.243 42.013 19.41 62.996 30.52 62.996 8.623 0 21.575-13.63 38.85-40.88 17.247-27.254 26.5-47.988 27.74-62.237 2.463-23.52-6.79-35.31-27.74-35.31-9.867 0-20.032 2.272-30.495 6.76 20.25-66.345 58.936-98.57 116.036-96.735 42.334 1.25 62.29 28.714 59.86 82.41z"/></symbol></svg>